<svg width="159" height="159" viewBox="0 0 159 159" fill="none" xmlns="http://www.w3.org/2000/svg">
<path d="M32.3 128.025V128.525V155.025C32.3 155.913 32.8463 156.711 33.6757 157.03L33.6765 157.031C33.9277 157.128 34.1897 157.175 34.45 157.175C35.0433 157.175 35.6262 156.927 36.041 156.472L32.3 128.025ZM32.3 128.025H31.8H15.7145C7.32513 128.025 0.5 121.2 0.5 112.811V56.7869C0.5 48.4002 7.32509 41.575 15.7145 41.575H111.3C119.689 41.575 126.514 48.4001 126.514 56.7895V112.813C126.514 121.2 119.689 128.025 111.3 128.025H62.1213H61.9001L61.7513 128.189L36.0412 156.471L32.3 128.025Z" fill="black" stroke="white"/>
<path d="M143.29 2.01051H143.291C151.675 2.01051 158.5 8.83554 158.5 17.225V73.2487C158.5 81.6353 151.675 88.4605 143.286 88.4605H140.45H139.95V88.9605V115.461C139.95 116.348 139.404 117.146 138.577 117.466C138.321 117.564 138.059 117.611 137.8 117.611C137.204 117.611 136.623 117.363 136.209 116.908L132.975 113.351C132.975 113.346 132.976 113.34 132.976 113.335C132.987 113.171 133 112.981 133 112.813V56.7895C133 48.9894 132.373 43.5052 128.575 40.0408C126.679 38.3112 124.036 37.1244 120.407 36.367C116.779 35.61 112.13 35.275 106.186 35.275H106.185L39.7554 35.4128H39.7544H39.7501C39.1806 35.4128 38.6344 35.1873 38.2298 34.7851C37.8258 34.3809 37.6001 33.8352 37.6001 33.2628V17.0395C37.6001 8.65015 44.4252 1.82501 52.8146 1.82501L143.29 2.01051Z" fill="black" stroke="white"/>
</svg>
