<svg width="159" height="159" viewBox="0 0 159 159" fill="none" xmlns="http://www.w3.org/2000/svg">
<path d="M111.3 41.075H15.7145C7.049 41.075 0 48.124 0 56.7869V112.811C0 121.476 7.049 128.525 15.7145 128.525H31.8V155.025C31.8 156.119 32.4731 157.103 33.496 157.497C33.806 157.617 34.1293 157.675 34.45 157.675C35.1814 157.675 35.8995 157.37 36.411 156.808L62.1213 128.525H111.3C119.965 128.525 127.014 121.476 127.014 112.813V56.7895C127.014 48.124 119.965 41.075 111.3 41.075Z" fill="#B13434"/>
<path d="M143.291 1.51051L52.8145 1.32501C44.149 1.32501 37.1 8.37401 37.1 17.0395V33.2628C37.1 33.9677 37.3783 34.6408 37.8765 35.139C38.3747 35.6346 39.0478 35.9128 39.75 35.9128H39.7553L106.186 35.775C129.906 35.775 132.5 41.1307 132.5 56.7895V112.813C132.5 113.054 132.474 113.293 132.463 113.531L135.839 117.244C136.35 117.806 137.066 118.111 137.8 118.111C138.121 118.111 138.444 118.052 138.757 117.933C139.777 117.538 140.45 116.555 140.45 115.461V88.9605H143.286C151.951 88.9605 159 81.9115 159 73.2487V17.225C159 8.55951 151.951 1.51051 143.291 1.51051Z" fill="#B13434"/>
</svg>
